<?xml version="1.0" encoding="utf-8"?>
<!-- Generator: Adobe Illustrator 17.1.0, SVG Export Plug-In . SVG Version: 6.00 Build 0)  -->
<svg version="1.2" baseProfile="tiny" id="Layer_1" xmlns="http://www.w3.org/2000/svg" xmlns:xlink="http://www.w3.org/1999/xlink"
	 x="0px" y="0px" viewBox="0 0 1413.26 612" xml:space="preserve">
<rect x="120.374" y="111.872" fill-rule="evenodd" fill="#D0E8D1" width="1128.083" height="435.361"/>
<polygon fill="#D87927" points="870.256,157.096 863.499,178.495 859.516,180.567 865.598,161.305 120.605,548.641 119.141,545.826 
	864.135,158.491 844.875,152.406 848.857,150.335 "/>
<path fill="#989797" d="M1248.456,493.313H120.374v-1h1128.082V493.313z M1248.456,438.894H120.374v-1h1128.082V438.894z
	 M1248.456,384.473H120.374v-1h1128.082V384.473z M1248.456,330.053H120.374v-1h1128.082V330.053z M1248.456,275.633H120.374v-1
	h1128.082V275.633z M1248.456,221.212H120.374v-1h1128.082V221.212z M1248.456,166.792H120.374v-1h1128.082V166.792z
	 M1248.456,112.372H120.374v-1h1128.082V112.372z"/>
<polygon fill="#053B44" points="120.373,507.915 133.048,516.16 145.723,516.921 158.398,521.52 171.073,513.519 183.748,509.901 
	196.424,512.54 209.099,523.778 221.773,514.908 234.449,514.419 247.124,508.486 259.799,501.575 272.474,505.03 285.149,475.726 
	297.824,491.698 310.499,481.875 323.174,488.459 335.849,478.065 348.524,490.745 361.2,469.658 373.874,501.603 386.55,502.01 
	399.225,504.105 411.899,504.486 424.575,507.398 437.25,503.126 449.925,501.52 462.6,485.793 475.275,472.813 487.951,467.726 
	500.625,483.099 513.3,484.052 525.976,485.249 538.65,493.52 551.326,498.065 564.001,496.024 576.675,487.834 589.351,493.358 
	602.026,497.819 614.702,500.214 627.376,500.894 640.052,503.208 652.727,514.472 665.401,508.132 678.077,509.438 
	690.751,502.555 703.427,496.159 716.102,497.548 728.777,492.678 741.452,505.684 754.126,520.023 766.802,498.092 
	779.477,476.134 792.152,469.439 804.827,509.085 817.503,494.936 830.177,489.685 842.852,380.272 855.527,453.603 
	868.202,479.099 880.878,505.657 893.553,489.875 906.228,478.501 918.904,449.087 931.578,463.372 944.253,461.794 
	956.928,442.366 969.603,443.617 982.279,407.645 994.954,443.073 1007.629,481.929 1020.303,458.827 1032.978,466.147 
	1045.653,473.712 1058.329,462.012 1071.004,458.665 1083.68,462.447 1096.353,456.161 1109.029,471.236 1121.704,336.9 
	1134.379,180.877 1147.055,271.323 1159.729,405.795 1172.404,473.357 1185.079,355.892 1197.755,389.171 1210.43,406.448 
	1223.105,434.855 1235.78,454.229 1248.456,457.522 1248.456,547.233 1235.78,547.233 1223.105,547.233 1210.43,547.233 
	1197.755,547.233 1185.079,547.233 1172.404,547.233 1159.729,547.233 1147.055,547.233 1134.379,547.233 1121.704,547.233 
	1109.029,547.233 1096.353,547.233 1083.68,547.233 1071.004,547.233 1058.329,547.233 1045.653,547.233 1032.978,547.233 
	1020.303,547.233 1007.629,547.233 994.954,547.233 982.279,547.233 969.603,547.233 956.928,547.233 944.253,547.233 
	931.578,547.233 918.904,547.233 906.228,547.233 893.553,547.233 880.878,547.233 868.202,547.233 855.527,547.233 
	842.852,547.233 830.177,547.233 817.503,547.233 804.827,547.233 792.152,547.233 779.477,547.233 766.802,547.233 
	754.126,547.233 741.452,547.233 728.777,547.233 716.102,547.233 703.427,547.233 690.751,547.233 678.077,547.233 
	665.401,547.233 652.727,547.233 640.052,547.233 627.376,547.233 614.702,547.233 602.026,547.233 589.351,547.233 
	576.675,547.233 564.001,547.233 551.326,547.233 538.65,547.233 525.976,547.233 513.3,547.233 500.625,547.233 487.951,547.233 
	475.275,547.233 462.6,547.233 449.925,547.233 437.25,547.233 424.575,547.233 411.899,547.233 399.225,547.233 386.55,547.233 
	373.874,547.233 361.2,547.233 348.524,547.233 335.849,547.233 323.174,547.233 310.499,547.233 297.824,547.233 285.149,547.233 
	272.474,547.233 259.799,547.233 247.124,547.233 234.449,547.233 221.773,547.233 209.099,547.233 196.424,547.233 
	183.748,547.233 171.073,547.233 158.398,547.233 145.723,547.233 133.048,547.233 120.373,547.233 "/>
<polygon fill="#05736C" points="120.373,543.628 133.048,547.233 145.723,547.233 158.398,547.233 171.073,547.233 183.748,547.233 
	196.424,547.233 209.099,537.439 221.773,509.411 234.449,547.233 247.124,547.233 259.799,529.18 272.474,547.233 285.149,542.335 
	297.824,547.233 310.499,543.873 323.174,546.458 335.849,545.533 348.524,532.54 361.2,537.846 373.874,547.233 386.55,547.233 
	399.225,547.233 411.899,506.147 424.575,547.233 437.25,541.03 449.925,492.949 462.6,547.233 475.275,540.35 487.951,537.439 
	500.625,543.723 513.3,497.548 525.976,547.233 538.65,542.335 551.326,547.233 564.001,547.233 576.675,547.233 589.351,547.233 
	602.026,547.233 614.702,533.139 627.376,515.996 640.052,542.335 652.727,547.233 665.401,547.233 678.077,547.233 
	690.751,547.233 703.427,547.233 716.102,547.233 728.777,533.765 741.452,542.335 754.126,547.233 766.802,542.335 
	779.477,537.343 792.152,547.233 804.827,547.233 817.503,547.233 830.177,547.233 842.852,509.085 855.527,547.233 
	868.202,542.335 880.878,547.233 893.553,546.458 906.228,466.691 918.903,508.188 931.578,537.166 944.253,479.89 956.928,517.03 
	969.603,506.962 982.278,516.622 994.954,547.233 1007.629,471.861 1020.303,489.304 1032.978,472.406 1045.653,527.099 
	1058.328,502.065 1071.004,510.908 1083.68,492.541 1096.353,477.031 1109.029,506.962 1121.703,246.208 1134.379,428.19 
	1147.055,311.73 1159.729,397.033 1172.404,476.759 1185.079,481.521 1197.755,437.495 1210.43,482.201 1223.105,437.033 
	1235.78,459.616 1248.456,431.999 1248.456,547.233 1235.78,547.233 1223.105,547.233 1210.43,547.233 1197.755,547.233 
	1185.079,547.233 1172.404,547.233 1159.729,547.233 1147.055,547.233 1134.379,547.233 1121.703,547.233 1109.029,547.233 
	1096.353,547.233 1083.68,547.233 1071.004,547.233 1058.328,547.233 1045.653,547.233 1032.978,547.233 1020.303,547.233 
	1007.629,547.233 994.954,547.233 982.278,547.233 969.603,547.233 956.928,547.233 944.253,547.233 931.578,547.233 
	918.903,547.233 906.228,547.233 893.553,547.233 880.878,547.233 868.202,547.233 855.527,547.233 842.852,547.233 
	830.177,547.233 817.503,547.233 804.827,547.233 792.152,547.233 779.477,547.233 766.802,547.233 754.126,547.233 
	741.452,547.233 728.777,547.233 716.102,547.233 703.427,547.233 690.751,547.233 678.077,547.233 665.401,547.233 
	652.727,547.233 640.052,547.233 627.376,547.233 614.702,547.233 602.026,547.233 589.351,547.233 576.675,547.233 
	564.001,547.233 551.326,547.233 538.65,547.233 525.976,547.233 513.3,547.233 500.625,547.233 487.951,547.233 475.275,547.233 
	462.6,547.233 449.925,547.233 437.25,547.233 424.575,547.233 411.899,547.233 399.225,547.233 386.55,547.233 373.874,547.233 
	361.2,547.233 348.524,547.233 335.849,547.233 323.174,547.233 310.499,547.233 297.824,547.233 285.149,547.233 272.474,547.233 
	259.799,547.233 247.124,547.233 234.449,547.233 221.773,547.233 209.099,547.233 196.424,547.233 183.748,547.233 
	171.073,547.233 158.398,547.233 145.723,547.233 133.048,547.233 120.373,547.233 "/>
<path fill="#989797" d="M120.374,547.733h-3.199v-1h3.199V547.733z M120.374,493.313h-3.199v-1h3.199V493.313z M120.374,438.894
	h-3.199v-1h3.199V438.894z M120.374,384.473h-3.199v-1h3.199V384.473z M120.374,330.053h-3.199v-1h3.199V330.053z M120.374,275.633
	h-3.199v-1h3.199V275.633z M120.374,221.212h-3.199v-1h3.199V221.212z M120.374,166.792h-3.199v-1h3.199V166.792z M120.374,112.372
	h-3.199v-1h3.199V112.372z"/>
<rect x="120.374" y="546.734" fill="#989797" width="1128.082" height="1"/>
<path fill="#989797" d="M1236.281,550.432h-1v-3.198h1V550.432z M1210.93,550.432h-1v-3.198h1V550.432z M1185.58,550.432h-1v-3.198
	h1V550.432z M1160.23,550.432h-1v-3.198h1V550.432z M1134.88,550.432h-1v-3.198h1V550.432z M1109.53,550.432h-1v-3.198h1V550.432z
	 M1084.18,550.432h-1v-3.198h1V550.432z M1058.83,550.432h-1v-3.198h1V550.432z M1033.479,550.432h-1v-3.198h1V550.432z
	 M1008.129,550.432h-1v-3.198h1V550.432z M982.779,550.432h-1v-3.198h1V550.432z M957.428,550.432h-1v-3.198h1V550.432z
	 M932.079,550.432h-1v-3.198h1V550.432z M906.729,550.432h-1v-3.198h1V550.432z M881.378,550.432h-1v-3.198h1V550.432z
	 M856.028,550.432h-1v-3.198h1V550.432z M830.678,550.432h-1v-3.198h1V550.432z M805.328,550.432h-1v-3.198h1V550.432z
	 M779.977,550.432h-1v-3.198h1V550.432z M754.627,550.432h-1v-3.198h1V550.432z M729.278,550.432h-1v-3.198h1V550.432z
	 M703.927,550.432h-1v-3.198h1V550.432z M678.577,550.432h-1v-3.198h1V550.432z M653.227,550.432h-1v-3.198h1V550.432z
	 M627.876,550.432h-1v-3.198h1V550.432z M602.526,550.432h-1v-3.198h1V550.432z M577.176,550.432h-1v-3.198h1V550.432z
	 M551.826,550.432h-1v-3.198h1V550.432z M526.477,550.432h-1v-3.198h1V550.432z M501.126,550.432h-1v-3.198h1V550.432z
	 M475.776,550.432h-1v-3.198h1V550.432z M450.426,550.432h-1v-3.198h1V550.432z M425.075,550.432h-1v-3.198h1V550.432z
	 M399.726,550.432h-1v-3.198h1V550.432z M374.375,550.432h-1v-3.198h1V550.432z M349.025,550.432h-1v-3.198h1V550.432z
	 M323.675,550.432h-1v-3.198h1V550.432z M298.325,550.432h-1v-3.198h1V550.432z M272.975,550.432h-1v-3.198h1V550.432z
	 M247.625,550.432h-1v-3.198h1V550.432z M222.274,550.432h-1v-3.198h1V550.432z M196.924,550.432h-1v-3.198h1V550.432z
	 M171.574,550.432h-1v-3.198h1V550.432z M146.224,550.432h-1v-3.198h1V550.432z M120.874,550.432h-1v-3.198h1V550.432z"/>
<path fill="#989797" d="M120.373,572.905v-24.801V572.905z"/>
<line fill="none" stroke="#808285" stroke-miterlimit="10" x1="120.373" y1="548.104" x2="120.373" y2="572.906"/>
<path fill="#989797" d="M500.665,573.897v-26.162V573.897z"/>
<line fill="none" stroke="#808285" stroke-miterlimit="10" x1="500.665" y1="547.734" x2="500.665" y2="573.896"/>
<path fill="#989797" d="M906.212,572.905v-25.672V572.905z"/>
<line fill="none" stroke="#808285" stroke-miterlimit="10" x1="906.211" y1="547.233" x2="906.211" y2="572.905"/>
<line fill="none" stroke="#808285" stroke-miterlimit="10" x1="1247.914" y1="546.733" x2="1247.914" y2="572.264"/>
<text transform="matrix(1 0 0 1 241.499 588.3789)" fill="#231F20" font-family="'PFDinTextPro-Medium'" font-size="30">September</text>
<text transform="matrix(1 0 0 1 657.1489 588.3789)" fill="#231F20" font-family="'PFDinTextPro-Medium'" font-size="30">October</text>
<text transform="matrix(1 0 0 1 1011.959 588.3789)" fill="#231F20" font-family="'PFDinTextPro-Medium'" font-size="30">N</text>
<text transform="matrix(1 0 0 1 1032.7188 588.3789)" fill="#231F20" font-family="'PFDinTextPro-Medium'" font-size="30">o</text>
<text transform="matrix(1 0 0 1 1047.5693 588.3789)" fill="#231F20" font-family="'PFDinTextPro-Medium'" font-size="30">v</text>
<text transform="matrix(1 0 0 1 1061.3984 588.3789)" fill="#231F20" font-family="'PFDinTextPro-Medium'" font-size="30">ember</text>
<text transform="matrix(1 0 0 1 70.8682 115.9551)" fill="#231F20" font-family="'PFDinTextPro-Medium'" font-size="12">16000</text>
<text transform="matrix(1 0 0 1 70.8682 170.2432)" fill="#231F20" font-family="'PFDinTextPro-Medium'" font-size="12">14000</text>
<text transform="matrix(1 0 0 1 70.8682 224.7949)" fill="#231F20" font-family="'PFDinTextPro-Medium'" font-size="12">12000</text>
<text transform="matrix(1 0 0 1 70.8682 279.083)" fill="#231F20" font-family="'PFDinTextPro-Medium'" font-size="12">10000</text>
<text transform="matrix(1 0 0 1 77.168 333.6348)" fill="#231F20" font-family="'PFDinTextPro-Medium'" font-size="12">8000</text>
<text transform="matrix(1 0 0 1 77.168 388.0547)" fill="#231F20" font-family="'PFDinTextPro-Medium'" font-size="12">6000</text>
<text transform="matrix(1 0 0 1 77.168 442.3428)" fill="#231F20" font-family="'PFDinTextPro-Medium'" font-size="12">4000</text>
<text transform="matrix(1 0 0 1 77.168 496.9189)" fill="#231F20" font-family="'PFDinTextPro-Medium'" font-size="12">2000</text>
<text transform="matrix(1 0 0 1 96.0684 551.207)" fill="#231F20" font-family="'PFDinTextPro-Medium'" font-size="12">0</text>
<text transform="matrix(1 0 0 1 1304.4326 338.9395)" fill="#231F20" font-family="'PFDinTextPro-Medium'" font-size="12">Sto</text>
<text transform="matrix(1 0 0 1 1321.2324 338.9395)" fill="#231F20" font-family="'PFDinTextPro-Medium'" font-size="12">r</text>
<text transform="matrix(1 0 0 1 1325.54 338.9395)" fill="#231F20" font-family="'PFDinTextPro-Medium'" font-size="12">e Page </text>
<text transform="matrix(1 0 0 1 1363.1006 338.9395)" fill="#231F20" font-family="'PFDinTextPro-Medium'" font-size="12">V</text>
<text transform="matrix(1 0 0 1 1369.7725 338.9395)" fill="#231F20" font-family="'PFDinTextPro-Medium'" font-size="12">iews</text>
<text transform="matrix(1 0 0 1 1304.4326 362.9395)" fill="#231F20" font-family="'PFDinTextPro-Medium'" font-size="12">Re</text>
<text transform="matrix(1 0 0 1 1318.0166 362.9395)" fill="#231F20" font-family="'PFDinTextPro-Medium'" font-size="12">v</text>
<text transform="matrix(1 0 0 1 1323.5361 362.9395)" fill="#231F20" font-family="'PFDinTextPro-Medium'" font-size="12">enue</text>
<rect x="1282.833" y="330.232" fill-rule="evenodd" fill="#053B44" width="9.096" height="9.094"/>
<rect x="1282.833" y="354.962" fill-rule="evenodd" fill="#05736C" width="9.096" height="9.094"/>
<text transform="matrix(1 0 0 1 319.543 87.2485)" fill="#231F20" font-family="'PFDinTextPro-ExtraThin'" font-size="85.4939"> </text>
<text transform="matrix(0.8872 -0.4613 0.4613 0.8872 763.9434 212.37)" fill="#231F20" font-family="'PFDinTextPro-ExtraBlackItalic'" font-size="11">H</text>
<text transform="matrix(0.8872 -0.4613 0.4613 0.8872 770.6096 208.9046)" fill="#231F20" font-family="'PFDinTextPro-ExtraBlackItalic'" font-size="11">u</text>
<text transform="matrix(0.8872 -0.4613 0.4613 0.8872 776.2411 205.9765)" fill="#231F20" font-family="'PFDinTextPro-ExtraBlackItalic'" font-size="11">b</text>
<text transform="matrix(0.8872 -0.4613 0.4613 0.8872 781.8232 203.0736)" fill="#231F20" font-family="'PFDinTextPro-ExtraBlackItalic'" font-size="11">s</text>
<text transform="matrix(0.8872 -0.4613 0.4613 0.8872 786.703 200.5372)" fill="#231F20" font-family="'PFDinTextPro-ExtraBlackItalic'" font-size="11">p</text>
<text transform="matrix(0.8872 -0.4613 0.4613 0.8872 792.2716 197.6413)" fill="#231F20" font-family="'PFDinTextPro-ExtraBlackItalic'" font-size="11">o</text>
<text transform="matrix(0.8872 -0.4613 0.4613 0.8872 797.7178 194.8095)" fill="#231F20" font-family="'PFDinTextPro-ExtraBlackItalic'" font-size="11">t</text>
<text transform="matrix(0.8872 -0.4613 0.4613 0.8872 801.6934 192.7433)" fill="#231F20" font-family="'PFDinTextPro-ExtraBlackItalic'" font-size="11"> </text>
<text transform="matrix(0.8872 -0.4613 0.4613 0.8872 804.5734 191.2461)" fill="#231F20" font-family="'PFDinTextPro-ExtraBlackItalic'" font-size="11">B</text>
<text transform="matrix(0.8872 -0.4613 0.4613 0.8872 811.1308 187.8366)" fill="#231F20" font-family="'PFDinTextPro-ExtraBlackItalic'" font-size="11">l</text>
<text transform="matrix(0.8872 -0.4613 0.4613 0.8872 814.498 186.0862)" fill="#231F20" font-family="'PFDinTextPro-ExtraBlackItalic'" font-size="11">o</text>
<text transform="matrix(0.8872 -0.4613 0.4613 0.8872 819.9637 183.2442)" fill="#231F20" font-family="'PFDinTextPro-ExtraBlackItalic'" font-size="11">g</text>
<text transform="matrix(0.8872 -0.4613 0.4613 0.8872 825.5176 180.3574)" fill="#231F20" font-family="'PFDinTextPro-ExtraBlackItalic'" font-size="11"> </text>
<text transform="matrix(0.8872 -0.4613 0.4613 0.8872 828.4004 178.8576)" fill="#231F20" font-family="'PFDinTextPro-ExtraBlackItalic'" font-size="11">V</text>
<text transform="matrix(0.8872 -0.4613 0.4613 0.8872 834.9269 175.4642)" fill="#231F20" font-family="'PFDinTextPro-ExtraBlackItalic'" font-size="11">i</text>
<text transform="matrix(0.8872 -0.4613 0.4613 0.8872 837.9914 173.8713)" fill="#231F20" font-family="'PFDinTextPro-ExtraBlackItalic'" font-size="11">e</text>
<text transform="matrix(0.8872 -0.4613 0.4613 0.8872 843.174 171.1765)" fill="#231F20" font-family="'PFDinTextPro-ExtraBlackItalic'" font-size="11">w</text>
<text transform="matrix(0.8872 -0.4613 0.4613 0.8872 851.2597 166.9712)" fill="#231F20" font-family="'PFDinTextPro-ExtraBlackItalic'" font-size="11">s</text>
</svg>
