<?xml version="1.0" encoding="utf-8"?>
<!-- Generator: Adobe Illustrator 17.1.0, SVG Export Plug-In . SVG Version: 6.00 Build 0)  -->
<svg version="1.2" baseProfile="tiny" id="Layer_1" xmlns="http://www.w3.org/2000/svg" xmlns:xlink="http://www.w3.org/1999/xlink"
	 x="0px" y="0px" viewBox="0 0 792 612" xml:space="preserve">
<line fill="none" stroke="#012635" stroke-width="3" stroke-miterlimit="10" x1="719.352" y1="110.456" x2="87.526" y2="110.456"/>
<line fill="none" stroke="#012635" stroke-width="3" stroke-miterlimit="10" x1="719.352" y1="145.61" x2="87.526" y2="145.61"/>
<line fill="none" stroke="#012635" stroke-width="3" stroke-miterlimit="10" x1="719.352" y1="180.763" x2="87.526" y2="180.763"/>
<line fill="none" stroke="#012635" stroke-width="3" stroke-miterlimit="10" x1="719.352" y1="215.917" x2="87.526" y2="215.917"/>
<line fill="none" stroke="#012635" stroke-width="3" stroke-miterlimit="10" x1="719.352" y1="251.071" x2="87.526" y2="251.071"/>
<line fill="none" stroke="#012635" stroke-width="3" stroke-miterlimit="10" x1="719.352" y1="286.224" x2="87.526" y2="286.224"/>
<line fill="none" stroke="#012635" stroke-width="3" stroke-miterlimit="10" x1="719.352" y1="321.378" x2="87.526" y2="321.378"/>
<line fill="none" stroke="#012635" stroke-width="3" stroke-miterlimit="10" x1="719.352" y1="356.531" x2="87.526" y2="356.531"/>
<line fill="none" stroke="#012635" stroke-width="3" stroke-miterlimit="10" x1="719.352" y1="391.685" x2="87.526" y2="391.685"/>
<rect x="102.535" y="110.457" fill="#05736C" width="623.817" height="281.229"/>
<line fill="none" stroke="#D0E8D1" stroke-width="3" stroke-miterlimit="10" x1="726.352" y1="110.456" x2="94.526" y2="110.456"/>
<line fill="none" stroke="#D0E8D1" stroke-width="3" stroke-miterlimit="10" x1="726.352" y1="145.61" x2="94.526" y2="145.61"/>
<line fill="none" stroke="#D0E8D1" stroke-width="3" stroke-miterlimit="10" x1="726.352" y1="180.763" x2="94.526" y2="180.763"/>
<line fill="none" stroke="#D0E8D1" stroke-width="3" stroke-miterlimit="10" x1="726.352" y1="215.917" x2="94.526" y2="215.917"/>
<line fill="none" stroke="#D0E8D1" stroke-width="3" stroke-miterlimit="10" x1="726.352" y1="251.071" x2="94.526" y2="251.071"/>
<line fill="none" stroke="#D0E8D1" stroke-width="3" stroke-miterlimit="10" x1="726.352" y1="286.224" x2="94.526" y2="286.224"/>
<line fill="none" stroke="#D0E8D1" stroke-width="3" stroke-miterlimit="10" x1="726.352" y1="321.378" x2="94.526" y2="321.378"/>
<line fill="none" stroke="#D0E8D1" stroke-width="3" stroke-miterlimit="10" x1="726.352" y1="356.531" x2="94.526" y2="356.531"/>
<line fill="none" stroke="#D0E8D1" stroke-width="3" stroke-miterlimit="10" x1="726.352" y1="391.685" x2="94.526" y2="391.685"/>
<line fill="none" stroke="#D0E8D1" stroke-width="3" stroke-miterlimit="10" x1="102.535" y1="391.685" x2="102.535" y2="110.457"/>
<line fill="none" stroke="#D0E8D1" stroke-width="3" stroke-miterlimit="10" x1="726.352" y1="393.191" x2="726.352" y2="108.968"/>
<text transform="matrix(1 0 0 1 26.1606 148.9639)" fill="#231F20" font-family="'Lato-Black'" font-size="18.0509">35,000</text>
<text transform="matrix(1 0 0 1 26.1606 113.8008)" fill="#231F20" font-family="'Lato-Black'" font-size="18.0509">40,000</text>
<text transform="matrix(1 0 0 1 26.1606 184.1089)" fill="#231F20" font-family="'Lato-Black'" font-size="18.0509">30,000</text>
<text transform="matrix(1 0 0 1 26.1606 219.2539)" fill="#231F20" font-family="'Lato-Black'" font-size="18.0509">25,000</text>
<text transform="matrix(1 0 0 1 26.1606 254.4175)" fill="#231F20" font-family="'Lato-Black'" font-size="18.0509">20,000</text>
<text transform="matrix(1 0 0 1 26.1606 289.436)" fill="#231F20" font-family="'Lato-Black'" font-size="18.0509">15,000</text>
<text transform="matrix(1 0 0 1 26.1606 324.3281)" fill="#231F20" font-family="'Lato-Black'" font-size="18.0509">10,000</text>
<text transform="matrix(1 0 0 1 35.6372 359.8711)" fill="#231F20" font-family="'Lato-Black'" font-size="18.0509">5,000</text>
<text transform="matrix(1 0 0 1 69.0493 395.0156)" fill="#231F20" font-family="'Lato-Black'" font-size="18.0509">0</text>
<text transform="matrix(1 0 0 1 129.2769 420.291)" fill="#231F20" font-family="'Lato-Black'" font-size="12">May</text>
<text transform="matrix(1 0 0 1 129.2769 438.4473)" fill="#231F20" font-family="'Lato-Black'" font-size="12">4 posts</text>
<text transform="matrix(1 0 0 1 129.2769 458.415)" fill="#231F20" font-family="'Lato-Black'" font-size="12">7,754 </text>
<text transform="matrix(1 0 0 1 162.2646 458.415)" fill="#231F20" font-family="'Lato-Black'" font-size="12">V</text>
<text transform="matrix(1 0 0 1 170.8691 458.415)" fill="#231F20" font-family="'Lato-Black'" font-size="12">iews</text>
<text transform="matrix(1 0 0 1 216.229 419.3789)" fill="#231F20" font-family="'Lato-Black'" font-size="12">June</text>
<text transform="matrix(1 0 0 1 216.229 458.415)" fill="#231F20" font-family="'Lato-Black'" font-size="12">11,037 </text>
<text transform="matrix(1 0 0 1 256.1768 458.415)" fill="#231F20" font-family="'Lato-Black'" font-size="12">V</text>
<text transform="matrix(1 0 0 1 264.7808 458.415)" fill="#231F20" font-family="'Lato-Black'" font-size="12">iews</text>
<text transform="matrix(1 0 0 1 216.229 437.5352)" fill="#231F20" font-family="'Lato-Black'" font-size="12">4 posts</text>
<text transform="matrix(1 0 0 1 303.0967 419.3789)" fill="#231F20" font-family="'Lato-Black'" font-size="12">July</text>
<text transform="matrix(1 0 0 1 303.0967 458.415)" fill="#231F20" font-family="'Lato-Black'" font-size="12">8,348 </text>
<text transform="matrix(1 0 0 1 336.085 458.415)" fill="#231F20" font-family="'Lato-Black'" font-size="12">V</text>
<text transform="matrix(1 0 0 1 344.7007 458.415)" fill="#231F20" font-family="'Lato-Black'" font-size="12">iews</text>
<text transform="matrix(1 0 0 1 303.0967 437.5352)" fill="#231F20" font-family="'Lato-Black'" font-size="12">7 posts</text>
<text transform="matrix(1 0 0 1 390.5649 419.2949)" fill="#231F20" font-family="'Lato-Black'" font-size="12">August</text>
<text transform="matrix(1 0 0 1 390.5649 458.415)" fill="#231F20" font-family="'Lato-Black'" font-size="12">9,122 </text>
<text transform="matrix(1 0 0 1 423.5527 458.415)" fill="#231F20" font-family="'Lato-Black'" font-size="12">V</text>
<text transform="matrix(1 0 0 1 432.1689 458.415)" fill="#231F20" font-family="'Lato-Black'" font-size="12">iews</text>
<text transform="matrix(1 0 0 1 390.5649 437.4395)" fill="#231F20" font-family="'Lato-Black'" font-size="12">10 posts</text>
<text transform="matrix(1 0 0 1 477.1572 420.0146)" fill="#231F20" font-family="'Lato-Black'" font-size="12">September*</text>
<text transform="matrix(1 0 0 1 477.1572 458.4033)" fill="#231F20" font-family="'Lato-Black'" font-size="12">11,626 </text>
<text transform="matrix(1 0 0 1 517.1045 458.4033)" fill="#231F20" font-family="'Lato-Black'" font-size="12">V</text>
<text transform="matrix(1 0 0 1 525.709 458.4033)" fill="#231F20" font-family="'Lato-Black'" font-size="12">iews</text>
<text transform="matrix(1 0 0 1 477.1572 438.1592)" fill="#231F20" font-family="'Lato-Black'" font-size="12">6 posts</text>
<text transform="matrix(1 0 0 1 565.1523 420.1348)" fill="#231F20" font-family="'Lato-Black'" font-size="12">October</text>
<text transform="matrix(1 0 0 1 565.1523 458.4033)" fill="#231F20" font-family="'Lato-Black'" font-size="12">18,235 </text>
<text transform="matrix(1 0 0 1 605.1006 458.4033)" fill="#231F20" font-family="'Lato-Black'" font-size="12">V</text>
<text transform="matrix(1 0 0 1 613.7168 458.4033)" fill="#231F20" font-family="'Lato-Black'" font-size="12">iews</text>
<text transform="matrix(1 0 0 1 565.1523 438.291)" fill="#231F20" font-family="'Lato-Black'" font-size="12">10 posts</text>
<text transform="matrix(1 0 0 1 650.9648 419.7266)" fill="#231F20" font-family="'Lato-Black'" font-size="12">N</text>
<text transform="matrix(1 0 0 1 660.0371 419.7266)" fill="#231F20" font-family="'Lato-Black'" font-size="12">o</text>
<text transform="matrix(1 0 0 1 666.7812 419.7266)" fill="#231F20" font-family="'Lato-Black'" font-size="12">v</text>
<text transform="matrix(1 0 0 1 673.1768 419.7266)" fill="#231F20" font-family="'Lato-Black'" font-size="12">ember</text>
<text transform="matrix(1 0 0 1 650.9648 458.1865)" fill="#231F20" font-family="'Lato-Black'" font-size="12">31,663 </text>
<text transform="matrix(1 0 0 1 690.9131 458.1865)" fill="#231F20" font-family="'Lato-Black'" font-size="12">V</text>
<text transform="matrix(1 0 0 1 699.5293 458.1865)" fill="#231F20" font-family="'Lato-Black'" font-size="12">iews</text>
<text transform="matrix(1 0 0 1 650.9648 437.8828)" fill="#231F20" font-family="'Lato-Black'" font-size="12">8 posts</text>
<line fill="none" stroke="#D0E8D1" stroke-width="3" stroke-miterlimit="10" x1="109.535" y1="391.685" x2="109.535" y2="403.99"/>
<line fill="none" stroke="#D0E8D1" stroke-width="3" stroke-miterlimit="10" x1="196.648" y1="391.685" x2="196.648" y2="403.99"/>
<line fill="none" stroke="#D0E8D1" stroke-width="3" stroke-miterlimit="10" x1="283.763" y1="391.686" x2="283.763" y2="403.99"/>
<line fill="none" stroke="#D0E8D1" stroke-width="3" stroke-miterlimit="10" x1="370.877" y1="391.686" x2="370.877" y2="403.99"/>
<line fill="none" stroke="#D0E8D1" stroke-width="3" stroke-miterlimit="10" x1="457.991" y1="391.686" x2="457.991" y2="403.99"/>
<line fill="none" stroke="#D0E8D1" stroke-width="3" stroke-miterlimit="10" x1="545.106" y1="391.686" x2="545.106" y2="403.99"/>
<line fill="none" stroke="#D0E8D1" stroke-width="3" stroke-miterlimit="10" x1="632.22" y1="391.688" x2="632.22" y2="403.99"/>
<line fill="none" stroke="#D0E8D1" stroke-width="3" stroke-miterlimit="10" x1="719.334" y1="391.688" x2="719.334" y2="403.99"/>
<polygon fill="#EAD075" points="675,145.61 683.968,150.787 683.968,156.285 677.38,152.481 677.38,239.247 672.62,239.247 
	672.62,152.481 666.032,156.285 666.032,150.787 "/>
<polygon fill="#EAD075" points="589.5,216.632 598.468,221.809 598.468,227.307 591.88,223.503 591.88,275.7 587.12,275.7 
	587.12,223.503 580.532,227.307 580.532,221.809 "/>
<polygon fill="#EAD075" points="500,251.633 508.968,256.811 508.968,262.307 502.38,258.504 502.38,310.701 497.62,310.701 
	497.62,258.504 491.032,262.307 491.032,256.811 "/>
<polygon fill="#053B44" points="102.535,328.382 206.504,302.003 310.473,323.609 414.441,317.389 518.411,297.27 622.38,244.164 
	726.352,136.268 726.352,390.686 622.38,390.686 518.411,390.686 414.441,390.686 310.473,390.686 206.504,390.686 102.535,390.686 
	"/>
<text transform="matrix(1 0 0 1 478 477.8975)" fill="#231F20" font-family="'Lato-Black'" font-size="10">*Hubspot Switch</text>
</svg>
