<?xml version="1.0" encoding="utf-8"?>
<!-- Generator: Adobe Illustrator 17.1.0, SVG Export Plug-In . SVG Version: 6.00 Build 0)  -->
<svg version="1.2" baseProfile="tiny" id="Layer_1" xmlns="http://www.w3.org/2000/svg" xmlns:xlink="http://www.w3.org/1999/xlink"
	 x="0px" y="0px" viewBox="0 0 792 612" xml:space="preserve">
<path fill="#231F20" d="M105.385,439.505h509.857H105.385z"/>
<line fill="none" stroke="#231F20" stroke-miterlimit="10" x1="105.385" y1="439.505" x2="615.242" y2="439.505"/>
<path fill="#231F20" d="M105.385,325.448h509.857H105.385z"/>
<line fill="none" stroke="#231F20" stroke-miterlimit="10" x1="105.385" y1="325.448" x2="615.242" y2="325.448"/>
<path fill="#231F20" d="M105.385,211.88h509.857H105.385z"/>
<line fill="none" stroke="#231F20" stroke-miterlimit="10" x1="105.385" y1="211.88" x2="615.242" y2="211.88"/>
<path fill="#231F20" d="M105.385,98.017h509.857H105.385z"/>
<line fill="none" stroke="#231F20" stroke-miterlimit="10" x1="105.385" y1="98.018" x2="615.242" y2="98.018"/>
<path fill="#231F20" d="M105.385,154.948h509.857H105.385z"/>
<line fill="none" stroke="#231F20" stroke-miterlimit="10" x1="105.385" y1="154.948" x2="615.242" y2="154.948"/>
<path fill="#231F20" d="M105.385,268.811h509.857H105.385z"/>
<line fill="none" stroke="#231F20" stroke-miterlimit="10" x1="105.385" y1="268.811" x2="615.242" y2="268.811"/>
<path fill="#231F20" d="M105.385,382.977h509.857H105.385z"/>
<line fill="none" stroke="#231F20" stroke-miterlimit="10" x1="105.385" y1="382.977" x2="615.242" y2="382.977"/>
<path fill="#231F20" d="M105.385,561.767h509.857H105.385z"/>
<line fill="none" stroke="#231F20" stroke-miterlimit="10" x1="105.385" y1="561.768" x2="615.242" y2="561.768"/>
<rect x="122.688" y="437.38" fill="#053B44" width="136.604" height="88.065"/>
<rect x="122.688" y="425.964" fill="#A53639" width="136.604" height="11.416"/>
<rect x="122.688" y="525.445" fill="#05736C" width="136.604" height="12.898"/>
<rect x="122.688" y="538.344" fill="#D87927" width="136.604" height="23.424"/>
<rect x="291.943" y="530.784" fill="#D87927" width="136.88" height="30.984"/>
<rect x="291.943" y="519.219" fill="#A9CF55" width="136.88" height="11.564"/>
<rect x="291.943" y="349.165" fill="#A53639" width="136.88" height="15.272"/>
<rect x="291.943" y="364.438" fill="#053B44" width="136.88" height="122.313"/>
<rect x="291.943" y="486.75" fill="#05736C" width="136.88" height="32.469"/>
<rect x="460.777" y="192.604" fill="#A53639" width="136.465" height="33.953"/>
<rect x="460.777" y="488.974" fill="#D87927" width="136.465" height="72.794"/>
<rect x="460.777" y="226.558" fill="#053B44" width="136.465" height="228.909"/>
<rect x="460.777" y="455.467" fill="#05736C" width="136.465" height="20.608"/>
<rect x="460.777" y="476.076" fill="#A9CF55" width="136.465" height="12.898"/>
<text transform="matrix(1 0 0 1 39.75 104.5854)" fill="#231F20" font-family="'Lato-Bold'" font-size="18">40,000</text>
<text transform="matrix(1 0 0 1 39.75 216.4912)" fill="#231F20" font-family="'Lato-Bold'" font-size="18">30,000</text>
<text transform="matrix(1 0 0 1 39.75 334.0674)" fill="#231F20" font-family="'Lato-Bold'" font-size="18">20,000</text>
<text transform="matrix(1 0 0 1 39.75 447.0537)" fill="#231F20" font-family="'Lato-Bold'" font-size="18">10,000</text>
<text transform="matrix(1 0 0 1 163.043 584.7832)" fill="#231F20" font-family="'Lato-Bold'" font-size="12">September</text>
<text transform="matrix(1 0 0 1 340.5952 584.7832)" fill="#231F20" font-family="'Lato-Bold'" font-size="12">October</text>
<text transform="matrix(1 0 0 1 518.0029 584.7832)" fill="#231F20" font-family="'Lato-Bold'" font-size="12">N</text>
<text transform="matrix(1 0 0 1 527.0752 584.7832)" fill="#231F20" font-family="'Lato-Bold'" font-size="12">o</text>
<text transform="matrix(1 0 0 1 533.6689 584.7832)" fill="#231F20" font-family="'Lato-Bold'" font-size="12">v</text>
<text transform="matrix(1 0 0 1 539.8311 584.7832)" fill="#231F20" font-family="'Lato-Bold'" font-size="12">ember</text>
<text transform="matrix(1 0 0 1 39.75 565.1973)" fill="#231F20" font-family="'Lato-Bold'" font-size="18">0</text>
<text transform="matrix(1 0 0 1 662.75 286.1968)" fill="#231F20" font-family="'Lato-Bold'" font-size="12">O</text>
<text transform="matrix(1 0 0 1 672.3379 286.1968)" fill="#231F20" font-family="'Lato-Bold'" font-size="12">r</text>
<text transform="matrix(1 0 0 1 676.8984 286.1968)" fill="#231F20" font-family="'Lato-Bold'" font-size="12">ganic sea</text>
<text transform="matrix(1 0 0 1 725.4141 286.1968)" fill="#231F20" font-family="'Lato-Bold'" font-size="12">r</text>
<text transform="matrix(1 0 0 1 729.998 286.1968)" fill="#231F20" font-family="'Lato-Bold'" font-size="12">ch</text>
<text transform="matrix(1 0 0 1 662.75 307.1973)" fill="#231F20" font-family="'Lato-Bold'" font-size="12">Refe</text>
<text transform="matrix(1 0 0 1 687.6328 307.1973)" fill="#231F20" font-family="'Lato-Bold'" font-size="12">r</text>
<text transform="matrix(1 0 0 1 691.958 307.1973)" fill="#231F20" font-family="'Lato-Bold'" font-size="12">r</text>
<text transform="matrix(1 0 0 1 696.6377 307.1973)" fill="#231F20" font-family="'Lato-Bold'" font-size="12">als</text>
<text transform="matrix(1 0 0 1 662.7617 328.1973)" fill="#231F20" font-family="'Lato-Bold'" font-size="12">Social Media</text>
<text transform="matrix(1 0 0 1 662.7617 349.1973)" fill="#231F20" font-family="'Lato-Bold'" font-size="12">Email Mar</text>
<text transform="matrix(1 0 0 1 717.165 349.1973)" fill="#231F20" font-family="'Lato-Bold'" font-size="12">k</text>
<text transform="matrix(1 0 0 1 723.6855 349.1973)" fill="#231F20" font-family="'Lato-Bold'" font-size="12">eting</text>
<text transform="matrix(1 0 0 1 662.7617 370.1973)" fill="#231F20" font-family="'Lato-Bold'" font-size="12">Di</text>
<text transform="matrix(1 0 0 1 674.9775 370.1973)" fill="#231F20" font-family="'Lato-Bold'" font-size="12">r</text>
<text transform="matrix(1 0 0 1 679.5381 370.1973)" fill="#231F20" font-family="'Lato-Bold'" font-size="12">ect </text>
<text transform="matrix(1 0 0 1 698.6299 370.1973)" fill="#231F20" font-family="'Lato-Bold'" font-size="12">T</text>
<text transform="matrix(1 0 0 1 705.2178 370.1973)" fill="#231F20" font-family="'Lato-Bold'" font-size="12">r</text>
<text transform="matrix(1 0 0 1 709.8857 370.1973)" fill="#231F20" font-family="'Lato-Bold'" font-size="12">a</text>
<text transform="matrix(1 0 0 1 716.1621 370.1973)" fill="#231F20" font-family="'PFDinTextPro-Light'" font-size="12">ﬃ</text>
<text transform="matrix(1 0 0 1 724.418 370.1973)" fill="#231F20" font-family="'Lato-Bold'" font-size="12">c</text>
<rect x="645.75" y="277.497" fill="#A53639" width="8.666" height="8.666"/>
<rect x="645.75" y="298.497" fill="#053B44" width="8.666" height="8.667"/>
<rect x="645.75" y="319.498" fill="#05736C" width="8.666" height="8.666"/>
<rect x="645.75" y="340.498" fill="#A9CF55" width="8.666" height="8.666"/>
<rect x="645.75" y="361.498" fill="#D87927" width="8.666" height="8.666"/>
<text transform="matrix(1 0 0 1 102.416 65.5576)" fill="#231F20" font-family="'Lato-Bold'" font-size="30">V</text>
<text transform="matrix(1 0 0 1 123.146 65.5576)" fill="#231F20" font-family="'Lato-Bold'" font-size="30">isits</text>
<text transform="matrix(1 0 0 1 171.1455 65.5576)" fill="#231F20" font-family="'Lato-Bold'" font-size="20"> </text>
<text transform="matrix(1 0 0 1 177.6055 65.5576)" fill="#231F20" font-family="'Lato-Bold'" font-size="20">more than</text>
<text transform="matrix(1 0 0 1 258.2051 65.5576)" fill="#231F20" font-family="'Lato-Bold'" font-size="40"> </text>
<text transform="matrix(1 0 0 1 262.2051 65.5576)" fill="#231F20" font-family="'Lato-Bold'" font-size="40">T</text>
<text transform="matrix(1 0 0 1 281.8052 65.5576)" fill="#231F20" font-family="'Lato-Bold'" font-size="40">r</text>
<text transform="matrix(1 0 0 1 297.4453 65.5576)" fill="#231F20" font-family="'Lato-Bold'" font-size="40">i</text>
<text transform="matrix(1 0 0 1 306.605 65.5576)" fill="#231F20" font-family="'Lato-Bold'" font-size="40">p</text>
<text transform="matrix(1 0 0 1 326.3252 65.5576)" fill="#231F20" font-family="'Lato-Bold'" font-size="40">p</text>
<text transform="matrix(1 0 0 1 346.8452 65.5576)" fill="#231F20" font-family="'Lato-Bold'" font-size="40">l</text>
<text transform="matrix(1 0 0 1 357.4854 65.5576)" fill="#231F20" font-family="'Lato-Bold'" font-size="40">e</text>
<text transform="matrix(1 0 0 1 377.2051 65.5576)" fill="#231F20" font-family="'Lato-Bold'" font-size="40">d</text>
<text transform="matrix(1 0 0 1 396.9248 65.5576)" fill="#231F20" font-family="'Lato-Bold'" font-size="40"> </text>
<text transform="matrix(1 0 0 1 400.9209 65.5576)" fill="#231F20" font-family="'Lato-Bold'" font-size="20">over the past three months.</text>
<text transform="matrix(1 0 0 1 662.75 250.3057)" fill="#231F20" font-family="'Lato-Bold'" font-size="21.0641">TRAFFIC </text>
<text transform="matrix(1 0 0 1 662.75 266.4619)" fill="#231F20" font-family="'Lato-Bold'" font-size="21.0641">SOURCE</text>
</svg>
